<svg width="62" height="70" viewBox="0 0 62 70" fill="none" xmlns="http://www.w3.org/2000/svg">
<path d="M38.3517 12.9046H23.4138M60.7584 18.0035V51.9965C60.7584 65.5937 57.024 68.993 42.0861 68.993H19.6794C4.74151 68.993 1.00705 65.5937 1.00705 51.9965V18.0035C1.00705 4.40634 4.74151 1.00705 19.6794 1.00705H42.0861C57.024 1.00705 60.7584 4.40634 60.7584 18.0035Z" stroke="#585858" stroke-width="2" stroke-linecap="round" stroke-linejoin="round"/>
<path d="M30.8829 59.1352C32.4181 59.1352 33.8904 58.58 34.976 57.5919C36.0615 56.6038 36.6713 55.2636 36.6713 53.8662C36.6713 52.4688 36.0615 51.1287 34.976 50.1406C33.8904 49.1524 32.4181 48.5973 30.8829 48.5973C29.3477 48.5973 27.8754 49.1524 26.7899 50.1406C25.7044 51.1287 25.0945 52.4688 25.0945 53.8662C25.0945 55.2636 25.7044 56.6038 26.7899 57.5919C27.8754 58.58 29.3477 59.1352 30.8829 59.1352Z" stroke="#585858" stroke-width="2" stroke-linecap="round" stroke-linejoin="round"/>
</svg>
