<svg width="66" height="42" viewBox="0 0 66 42" fill="none" xmlns="http://www.w3.org/2000/svg">
<path d="M61.6182 5.93542C57.715 6.27155 52.5837 11.7156 47.6367 14.8457C41.5684 18.6819 32.1271 15.5977 32.1253 15.5977C33.581 14.6433 39.502 12.6741 40.6953 11.9437C47.0318 8.04861 46.4924 -0.065946 43.475 0.000404428C39.4897 0.093758 37.1468 1.46063 29.1893 2.97563C23.1585 4.12056 16.0271 3.70163 12.6055 5.52601C7.77617 8.10236 0 25.4335 0 25.4335L12.0283 41.7089C12.0283 41.7089 19.473 31.469 23.095 31.469C31.3491 31.469 31.6802 31.3135 39.3447 30.7328C42.6067 30.489 43.2868 30.302 45.1495 29.4245C55.0864 24.7332 65.7531 12.2405 65.9494 10.7368C66.4059 7.25627 63.6771 5.75592 61.6182 5.93542Z" fill="#216900"/>
</svg>
