<svg width="28" height="28" viewBox="0 0 28 28" fill="none" xmlns="http://www.w3.org/2000/svg">
<mask id="mask0_1_555" style="mask-type:alpha" maskUnits="userSpaceOnUse" x="-5" y="-5" width="38" height="38">
<rect x="-4.66511" y="-4.66511" width="37.3335" height="37.3335" fill="#D9D9D9"/>
</mask>
<g mask="url(#mask0_1_555)">
<path d="M7.00002 21.0001H21.0001V19.4445H7.00002V21.0001ZM14 16.0343L19.1455 10.8889L18.0445 9.78798L14.7778 13.0368V5.44446H13.2223V13.0368L9.95559 9.78798L8.85464 10.8889L14 16.0343ZM14.0051 28.0001C12.0692 28.0001 10.2491 27.6327 8.5447 26.898C6.84058 26.1632 5.35813 25.1661 4.09735 23.9066C2.83657 22.6472 1.83854 21.166 1.10328 19.4632C0.36776 17.7606 0 15.9413 0 14.0051C0 12.0692 0.367371 10.2491 1.10211 8.5447C1.83686 6.84058 2.83397 5.35813 4.09346 4.09735C5.35294 2.83656 6.8341 1.83854 8.53692 1.10328C10.2395 0.36776 12.0588 0 13.995 0C15.9309 0 17.751 0.367373 19.4554 1.10212C21.1595 1.83686 22.642 2.83397 23.9027 4.09346C25.1635 5.35294 26.1616 6.8341 26.8968 8.53692C27.6323 10.2395 28.0001 12.0588 28.0001 13.995C28.0001 15.9309 27.6327 17.751 26.898 19.4554C26.1632 21.1595 25.1661 22.642 23.9066 23.9027C22.6472 25.1635 21.166 26.1616 19.4632 26.8968C17.7606 27.6323 15.9413 28.0001 14.0051 28.0001ZM14 26.4445C17.4741 26.4445 20.4167 25.239 22.8279 22.8279C25.239 20.4167 26.4445 17.4741 26.4445 14C26.4445 10.526 25.239 7.58336 22.8279 5.17224C20.4167 2.76112 17.4741 1.55556 14 1.55556C10.526 1.55556 7.58336 2.76112 5.17224 5.17224C2.76112 7.58336 1.55556 10.526 1.55556 14C1.55556 17.4741 2.76112 20.4167 5.17224 22.8279C7.58336 25.239 10.526 26.4445 14 26.4445Z" fill="white"/>
</g>
</svg>
