<svg width="44" height="44" viewBox="0 0 44 44" fill="none" xmlns="http://www.w3.org/2000/svg">
<mask id="mask0_1_656" style="mask-type:alpha" maskUnits="userSpaceOnUse" x="-9" y="-9" width="62" height="62">
<rect x="-8.34483" y="-8.34483" width="60.6897" height="60.6897" fill="#D9D9D9"/>
</mask>
<g mask="url(#mask0_1_656)">
<path d="M20.9885 38.4368H22.8851V35.5287C24.613 35.4444 26.3305 34.8439 28.0374 33.727C29.7443 32.6102 30.5977 30.8506 30.5977 28.4483C30.5977 26.6782 30.0498 25.2031 28.954 24.023C27.8582 22.8429 25.7931 21.705 22.7586 20.6092C19.8927 19.5977 18.1015 18.7337 17.3851 18.0172C16.6686 17.3008 16.3103 16.2682 16.3103 14.9195C16.3103 13.5709 16.8477 12.433 17.9224 11.5057C18.9971 10.5785 20.3985 10.1149 22.1264 10.1149C23.3908 10.1149 24.4655 10.3994 25.3506 10.9684C26.2356 11.5374 26.9732 12.2644 27.5632 13.1494L29.2069 12.5172C28.5747 11.3793 27.7002 10.4416 26.5833 9.70402C25.4665 8.96648 24.2759 8.55556 23.0115 8.47126V5.56322H21.1149V8.47126C18.8812 8.80843 17.2059 9.59866 16.0891 10.842C14.9722 12.0852 14.4138 13.4444 14.4138 14.9195C14.4138 16.6897 14.9828 18.1015 16.1207 19.1552C17.2586 20.2088 19.2184 21.2414 22 22.2529C24.7395 23.2644 26.5623 24.181 27.4684 25.0029C28.3745 25.8247 28.8276 26.9732 28.8276 28.4483C28.8276 30.3448 28.1322 31.704 26.7414 32.5259C25.3506 33.3477 23.8966 33.7586 22.3793 33.7586C20.9042 33.7586 19.5661 33.3372 18.3649 32.4943C17.1638 31.6513 16.1839 30.4713 15.4253 28.954L13.7816 29.7126C14.5402 31.3563 15.5201 32.6207 16.7213 33.5057C17.9224 34.3908 19.3448 35.023 20.9885 35.4023V38.4368ZM22 44C18.9655 44 16.1102 43.4205 13.4339 42.2615C10.7577 41.1025 8.42912 39.5326 6.44828 37.5517C4.46743 35.5709 2.89751 33.2423 1.73851 30.5661C0.579502 27.8898 0 25.0345 0 22C0 18.9655 0.579502 16.1102 1.73851 13.4339C2.89751 10.7577 4.46743 8.42912 6.44828 6.44828C8.42912 4.46743 10.7577 2.89751 13.4339 1.73851C16.1102 0.579502 18.9655 0 22 0C25.0345 0 27.8898 0.579502 30.5661 1.73851C33.2423 2.89751 35.5709 4.46743 37.5517 6.44828C39.5326 8.42912 41.1025 10.7577 42.2615 13.4339C43.4205 16.1102 44 18.9655 44 22C44 25.0345 43.4205 27.8898 42.2615 30.5661C41.1025 33.2423 39.5326 35.5709 37.5517 37.5517C35.5709 39.5326 33.2423 41.1025 30.5661 42.2615C27.8898 43.4205 25.0345 44 22 44ZM22 42.2299C27.6475 42.2299 32.431 40.2701 36.3506 36.3506C40.2701 32.431 42.2299 27.6475 42.2299 22C42.2299 16.3525 40.2701 11.569 36.3506 7.64943C32.431 3.72989 27.6475 1.77011 22 1.77011C16.3525 1.77011 11.569 3.72989 7.64943 7.64943C3.72989 11.569 1.77011 16.3525 1.77011 22C1.77011 27.6475 3.72989 32.431 7.64943 36.3506C11.569 40.2701 16.3525 42.2299 22 42.2299Z" fill="#1C1B1F"/>
</g>
</svg>
