<svg width="74" height="68" viewBox="0 0 74 68" fill="none" xmlns="http://www.w3.org/2000/svg">
<path d="M44.3385 5.66656H28.7972C23.312 5.66656 22.0931 8.21659 21.3923 11.3616L18.8934 22.4682H54.2422L51.7434 11.3616C51.0425 8.21659 49.8236 5.66656 44.3385 5.66656Z" stroke="#216900" stroke-width="5.93165" stroke-linecap="round" stroke-linejoin="round"/>
<path d="M58.6301 40.5732C58.8739 42.9815 56.8017 45.0499 54.1505 45.0499H50.0062C47.6293 45.0499 47.2941 44.1149 46.8675 42.9249L46.4104 41.7064C45.8009 40.0347 45.4048 38.9014 42.2051 38.9014H30.8996C27.7304 38.9014 27.2428 40.1764 26.6943 41.7064L26.2372 42.9249C25.8106 44.0865 25.4754 45.0499 23.0985 45.0499H18.9541C16.303 45.0499 14.2308 42.9815 14.4746 40.5732L15.724 28.0499C16.0287 24.9616 16.6686 22.4398 22.4585 22.4398H50.6461C56.436 22.4398 57.0759 24.9616 57.3807 28.0499L58.6301 40.5732Z" stroke="#216900" stroke-width="5.93165" stroke-linecap="round" stroke-linejoin="round"/>
<path d="M18.8936 16.2916H16.6691" stroke="#216900" stroke-width="5.93165" stroke-linecap="round" stroke-linejoin="round"/>
<path d="M56.4665 16.2916H54.242" stroke="#216900" stroke-width="5.93165" stroke-linecap="round" stroke-linejoin="round"/>
<path d="M23.3118 30.6852H29.9245" stroke="#216900" stroke-width="5.93165" stroke-linecap="round" stroke-linejoin="round"/>
<path d="M43.2108 30.6852H49.8235" stroke="#216900" stroke-width="5.93165" stroke-linecap="round" stroke-linejoin="round"/>
<path d="M36.5677 48.1667V51" stroke="#216900" stroke-width="5.93165" stroke-linecap="round" stroke-linejoin="round"/>
<path d="M36.5677 59.5V62.3334" stroke="#216900" stroke-width="5.93165" stroke-linecap="round" stroke-linejoin="round"/>
<path d="M9.14217 51.0001L6.09486 62.3334" stroke="#216900" stroke-width="5.93165" stroke-linecap="round" stroke-linejoin="round"/>
<path d="M63.9938 51.0001L67.0412 62.3334" stroke="#216900" stroke-width="5.93165" stroke-linecap="round" stroke-linejoin="round"/>
</svg>
