<svg width="66" height="63" viewBox="0 0 66 63" fill="none" xmlns="http://www.w3.org/2000/svg">
<path d="M49.5002 18.6161C49.3352 18.5901 49.1427 18.5901 48.9777 18.6161C45.1827 18.4861 42.1577 15.5481 42.1577 11.9081C42.1577 8.19008 45.3202 5.20007 49.2527 5.20007C53.1852 5.20007 56.3477 8.21608 56.3477 11.9081C56.3202 15.5481 53.2952 18.4861 49.5002 18.6161Z" stroke="#585858" stroke-width="2.4" stroke-linecap="round" stroke-linejoin="round"/>
<path d="M46.6675 37.5439C50.435 38.1419 54.5875 37.5179 57.5025 35.6719C61.38 33.2279 61.38 29.2239 57.5025 26.7799C54.56 24.9339 50.3525 24.3099 46.585 24.9339" stroke="#585858" stroke-width="2.4" stroke-linecap="round" stroke-linejoin="round"/>
<path d="M16.4168 18.6161C16.5818 18.5901 16.7743 18.5901 16.9393 18.6161C20.7343 18.4861 23.7593 15.5481 23.7593 11.9081C23.7593 8.19008 20.5968 5.20007 16.6643 5.20007C12.7318 5.20007 9.56934 8.21608 9.56934 11.9081C9.59684 15.5481 12.6218 18.4861 16.4168 18.6161Z" stroke="#585858" stroke-width="2.4" stroke-linecap="round" stroke-linejoin="round"/>
<path d="M19.25 37.5439C15.4825 38.1419 11.33 37.5179 8.41496 35.6719C4.53746 33.2279 4.53746 29.2239 8.41496 26.7799C11.3575 24.9339 15.565 24.3099 19.3325 24.9339" stroke="#585858" stroke-width="2.4" stroke-linecap="round" stroke-linejoin="round"/>
<path d="M33.0002 38.0378C32.8352 38.0118 32.6427 38.0118 32.4777 38.0378C28.6827 37.9078 25.6577 34.9698 25.6577 31.3298C25.6577 27.6118 28.8202 24.6218 32.7527 24.6218C36.6852 24.6218 39.8477 27.6378 39.8477 31.3298C39.8202 34.9698 36.7952 37.9338 33.0002 38.0378Z" stroke="#585858" stroke-width="2.4" stroke-linecap="round" stroke-linejoin="round"/>
<path d="M24.9975 46.2278C21.12 48.6718 21.12 52.6758 24.9975 55.1198C29.3975 57.9018 36.6025 57.9018 41.0025 55.1198C44.88 52.6758 44.88 48.6718 41.0025 46.2278C36.63 43.4718 29.3975 43.4718 24.9975 46.2278Z" stroke="#585858" stroke-width="2.4" stroke-linecap="round" stroke-linejoin="round"/>
</svg>
