<svg width="62" height="79" viewBox="0 0 62 79" fill="none" xmlns="http://www.w3.org/2000/svg">
<path d="M55.3708 58.6154C57.8407 60.3691 59.141 62.3583 59.141 64.3832C59.141 66.4082 57.8407 68.3974 55.3708 70.1511C52.9009 71.9047 49.3485 73.3609 45.0705 74.3734C40.7925 75.3859 35.9398 75.9189 31 75.9189C26.0602 75.9189 21.2075 75.3859 16.9295 74.3734C12.6516 73.3609 9.09909 71.9047 6.62921 70.1511C4.15932 68.3974 2.85903 66.4082 2.85903 64.3832C2.85903 62.3583 4.15932 60.3691 6.6292 58.6154" stroke="#216900" stroke-width="5.71725" stroke-linecap="round"/>
<path d="M55.8294 31.6984C55.8294 52.266 35.184 65.6976 31.544 67.9059C31.2023 68.1132 30.7959 68.1132 30.4543 67.9059C26.8143 65.6976 6.16884 52.266 6.16884 31.6984C6.16884 14.3949 18.2 2.85927 30.9991 2.85927C44.2419 2.85927 55.8294 14.3949 55.8294 31.6984Z" stroke="#216900" stroke-width="5.71725"/>
<path d="M41.3837 31.6987C41.3837 39.0307 36.3482 44.2203 31.0001 44.2203C25.6521 44.2203 20.6166 39.0307 20.6166 31.6987C20.6166 24.3666 25.6521 19.1771 31.0001 19.1771C36.3482 19.1771 41.3837 24.3666 41.3837 31.6987Z" stroke="#216900" stroke-width="5.71725"/>
</svg>
