<svg width="28" height="28" viewBox="0 0 28 28" fill="none" xmlns="http://www.w3.org/2000/svg">
<mask id="mask0_1_562" style="mask-type:alpha" maskUnits="userSpaceOnUse" x="-5" y="-5" width="38" height="38">
<rect x="-4.65727" y="-4.66511" width="37.3335" height="37.3335" fill="#D9D9D9"/>
</mask>
<g mask="url(#mask0_1_562)">
<path d="M4.97196 22.5315C6.29419 21.5803 7.69717 20.8281 9.18092 20.2748C10.6647 19.7213 12.271 19.4445 14 19.4445C15.7291 19.4445 17.3354 19.7213 18.8192 20.2748C20.3029 20.8281 21.7059 21.5803 23.0281 22.5315C24.0553 21.4686 24.8815 20.2132 25.5065 18.7655C26.1319 17.3175 26.4445 15.7291 26.4445 14C26.4445 10.5519 25.2325 7.61577 22.8084 5.19168C20.3843 2.7676 17.4482 1.55556 14 1.55556C10.5519 1.55556 7.61577 2.7676 5.19168 5.19168C2.7676 7.61577 1.55556 10.5519 1.55556 14C1.55556 15.7291 1.86823 17.3175 2.49356 18.7655C3.11864 20.2132 3.94477 21.4686 4.97196 22.5315ZM14.0008 14.7778C12.69 14.7778 11.5844 14.3279 10.684 13.428C9.78357 12.5281 9.33337 11.4227 9.33337 10.1119C9.33337 8.80111 9.78331 7.69549 10.6832 6.79508C11.5831 5.89467 12.6885 5.44446 13.9993 5.44446C15.3101 5.44446 16.4157 5.89441 17.3161 6.7943C18.2165 7.69419 18.6667 8.79955 18.6667 10.1104C18.6667 11.4212 18.2168 12.5268 17.3169 13.4272C16.417 14.3276 15.3116 14.7778 14.0008 14.7778ZM14 28.0001C12.0476 28.0001 10.2198 27.6366 8.5167 26.9097C6.81362 26.1827 5.33181 25.1891 4.07129 23.9288C2.81103 22.6683 1.81741 21.1865 1.09045 19.4834C0.363483 17.7803 0 15.9525 0 14C0 12.0476 0.363483 10.2198 1.09045 8.5167C1.81741 6.81362 2.81103 5.33181 4.07129 4.07129C5.33181 2.81103 6.81362 1.81741 8.5167 1.09045C10.2198 0.363482 12.0476 0 14 0C15.9525 0 17.7803 0.363482 19.4834 1.09045C21.1865 1.81741 22.6683 2.81103 23.9288 4.07129C25.1891 5.33181 26.1827 6.81362 26.9097 8.5167C27.6366 10.2198 28.0001 12.0476 28.0001 14C28.0001 15.9525 27.6366 17.7803 26.9097 19.4834C26.1827 21.1865 25.1891 22.6683 23.9288 23.9288C22.6683 25.1891 21.1865 26.1827 19.4834 26.9097C17.7803 27.6366 15.9525 28.0001 14 28.0001ZM14 26.4445C15.434 26.4445 16.845 26.1937 18.2331 25.692C19.6209 25.1906 20.8204 24.5041 21.8315 23.6325C20.8204 22.8207 19.6508 22.1791 18.3226 21.7075C16.9944 21.2359 15.5535 21.0001 14 21.0001C12.4466 21.0001 11.0007 21.2309 9.66237 21.6927C8.32432 22.1544 7.15973 22.801 6.16858 23.6325C7.17969 24.5041 8.37916 25.1906 9.76698 25.692C11.1551 26.1937 12.5661 26.4445 14 26.4445ZM14 13.2223C14.8735 13.2223 15.6104 12.9222 16.2109 12.322C16.8111 11.7215 17.1112 10.9846 17.1112 10.1111C17.1112 9.2377 16.8111 8.50075 16.2109 7.90031C15.6104 7.30012 14.8735 7.00002 14 7.00002C13.1266 7.00002 12.3897 7.30012 11.7892 7.90031C11.189 8.50075 10.8889 9.2377 10.8889 10.1111C10.8889 10.9846 11.189 11.7215 11.7892 12.322C12.3897 12.9222 13.1266 13.2223 14 13.2223Z" fill="white"/>
</g>
</svg>
